# xmcd
#
# Track frame offsets:
#	172
#	18500
#	43100
#	56050
#	74130
#	90450
#	105382
#	122007
#	144632
#	160092
#	178140
#	193940
# Disc length: 2779 seconds
# Revision: 1
# Processed by: cddbd v1.5.1PL0 Copyright (c) Steve Scherf et al.
#
# Submitted via: libkcddb 0.10
#
DISCID=ae0ad90c
DTITLE=Buttnaked - Cool cool women
DYEAR=1900
DGENRE=Unknown
TTITLE0=Cool cool woman
TTITLE1=Far from home
TTITLE2=Going to my baby's house
TTITLE3=Somebody tell that woman
TTITLE4=Night life
TTITLE5=Right from wrong
TTITLE6=Got love if you want it
TTITLE7=Three cats
TTITLE8=Travelling shoes
TTITLE9=She's cooking good
TTITLE10=Going to my baby's house
TTITLE11=Do what you wanna
EXTD=
EXTT0=
EXTT1=
EXTT2=
EXTT3=
EXTT4=
EXTT5=
EXTT6=
EXTT7=
EXTT8=
EXTT9=
EXTT10=
EXTT11=
PLAYORDER=
